<?xml version="1.0" encoding="UTF-8"?>
<svg width="634px" height="634px" viewBox="0 0 634 634" version="1.1" xmlns="http://www.w3.org/2000/svg" xmlns:xlink="http://www.w3.org/1999/xlink">
    <title>129B64C8-0842-4A71-8F6D-1719F0C3A194</title>
    <g id="Diligent-Design-System" stroke="none" stroke-width="1" fill="none" fill-rule="evenodd">
        <g id="Login-V1.0" transform="translate(229.000000, -530.000000)" fill-rule="nonzero" stroke-width="25">
            <g id="diligentDesignMarkAlt" transform="translate(88.133883, 846.866117) rotate(45.000000) translate(-88.133883, -846.866117) translate(-116.954735, 628.994796)">
                <g id="Group-3" transform="translate(306.177236, 6.742641)" stroke="#FFFFFF">
                    <path d="M51.8822423,128.458689 C38.1215297,128.458689 24.9246701,133.97384 15.1959814,143.790389 C5.46729274,153.606938 0.00405235841,166.920406 0.00859085198,180.800814 L0.00859085198,375.707495 C-0.332097341,394.630971 9.48140711,412.265917 25.6738933,421.82825 C41.8663795,431.390583 61.9152138,431.390583 78.1076999,421.82825 C94.3001861,412.265917 104.113691,394.630971 103.773002,375.707495 L103.773002,180.800814 C103.773002,151.893056 80.5407177,128.458689 51.8822423,128.458689 L51.8822423,128.458689 Z" id="Path"></path>
                    <path d="M17.62183,90.1006806 L86.5794564,90.1006806 C92.9103954,90.1042939 98.7443431,86.667184 101.814991,81.1245591 C104.885639,75.5819342 104.708982,68.8074414 101.353645,63.4327618 L66.8748318,8.19452718 C63.6935349,3.09694147 58.11319,0 52.109203,0 C46.105216,0 40.5248711,3.09694147 37.3435742,8.19452718 L2.86476102,63.4327618 C-0.488950599,68.8048389 -0.667174294,75.5756124 2.39926597,81.1170631 C5.46570623,86.6585139 11.2939564,90.0980628 17.62183,90.1006806 L17.62183,90.1006806 Z" id="Path"></path>
                </g>
                <g id="Group-2" transform="translate(0.000000, 0.207107)" stroke="#FFFFFF">
                    <rect id="Rectangle" x="0" y="136.664837" width="103.564102" height="298.335163" rx="51.782051"></rect>
                    <path d="M52.2357775,0 C31.2906464,-0.00690226298 12.4040681,12.6036384 4.38392797,31.9506128 C-3.63621221,51.2975872 0.789760506,73.5703477 15.5977634,88.3818397 C30.4057663,103.193332 52.6791634,107.626232 72.0306034,99.6132275 C91.3820433,91.6002228 104,72.7195823 104,51.7764223 C104,23.1877607 80.8271296,0.0094287036 52.2357775,0 Z" id="Path"></path>
                </g>
                <path d="M204.769025,-2.27373675e-13 C191.104492,-0.00912055955 177.99654,5.48579795 168.33107,15.274982 C158.6656,25.064166 153.235065,38.3450245 153.235065,52.1935865 L153.235065,381.806425 C153.235065,410.63214 176.2924,434 204.735065,434 C233.177729,434 256.235065,410.63214 256.235065,381.806425 L256.235065,52.1935865 C256.235065,23.3813063 233.198426,0.0190105596 204.769025,-2.27373675e-13 Z" id="Path" stroke="#ffffff"></path>
            </g>
        </g>
    </g>
</svg>